<?xml version="1.0" encoding="UTF-8"?>
<svg width="54px" height="54px" viewBox="0 0 54 54" version="1.1" xmlns="http://www.w3.org/2000/svg" xmlns:xlink="http://www.w3.org/1999/xlink">
    <!-- Generator: sketchtool 59.1 (101010) - https://sketch.com -->
    <title>E95EFC23-2A82-400A-8E48-44B19776DA94</title>
    <desc>Created with sketchtool.</desc>
    <g id="Page-1" stroke="none" stroke-width="1" fill="none" fill-rule="evenodd">
        <g id="icon" transform="translate(-486.000000, -48.000000)" fill="#DEE2E6">
            <g id="ic_account_defult" transform="translate(486.000000, 48.000000)">
                <path d="M27,0.333333333 C41.72,0.333333333 53.6666667,12.28 53.6666667,27 C53.6666667,41.72 41.72,53.6666667 27,53.6666667 C12.28,53.6666667 0.333333333,41.72 0.333333333,27 C0.333333333,12.28 12.28,0.333333333 27,0.333333333 Z M11.0613333,36.1093333 C14.976,41.9493333 20.8533333,45.6666667 27.4266667,45.6666667 C33.9973333,45.6666667 39.8773333,41.952 43.7893333,36.1093333 C39.3513049,31.961591 33.5011864,29.6581545 27.4266667,29.6666393 C21.3512262,29.6574768 15.5000341,31.9609606 11.0613333,36.1093333 L11.0613333,36.1093333 Z M27,24.3333333 C31.418278,24.3333333 35,20.7516113 35,16.3333333 C35,11.9150553 31.418278,8.33333333 27,8.33333333 C22.581722,8.33333333 19,11.9150553 19,16.3333333 C19,20.7516113 22.581722,24.3333333 27,24.3333333 Z" id="Shape"></path>
            </g>
        </g>
    </g>
</svg>