<?xml version="1.0" encoding="UTF-8"?>
<svg width="24px" height="24px" viewBox="0 0 24 24" version="1.1" xmlns="http://www.w3.org/2000/svg" xmlns:xlink="http://www.w3.org/1999/xlink">
    <!-- Generator: sketchtool 59.1 (101010) - https://sketch.com -->
    <title>86A43E1E-705C-41BC-BA7A-D1D9D631E0FE</title>
    <desc>Created with sketchtool.</desc>
    <defs>
        <polygon id="path-1" points="0 0.0603060403 21.5034523 0.0603060403 21.5034523 20.0053256 0 20.0053256"></polygon>
    </defs>
    <g id="Page-1" stroke="none" stroke-width="1" fill="none" fill-rule="evenodd">
        <g id="icon" transform="translate(-223.000000, -81.000000)">
            <g id="Group-5" transform="translate(223.000000, 81.000000)">
                <rect id="Rectangle" x="0" y="0" width="24" height="24"></rect>
                <g id="Group-10" transform="translate(1.200000, 2.400000)">
                    <path d="M4.69252027,7.50449235 C4.28356993,7.50449235 3.95217664,7.8360306 3.95217664,8.24498094 C3.95217664,8.65393128 4.28356993,8.98546953 4.69252027,8.98546953 C5.1014706,8.98546953 5.43300886,8.65393128 5.43300886,8.24498094 C5.43300886,7.8360306 5.1014706,7.50449235 4.69252027,7.50449235" id="Fill-1" fill="#ADB5BD"></path>
                    <path d="M12.0062368,7.42726872 C11.5659737,7.42726872 11.2089213,7.78417611 11.2089213,8.22458416 C11.2089213,8.66499221 11.5659737,9.0218996 12.0062368,9.0218996 C12.4464999,9.0218996 12.8035522,8.66499221 12.8035522,8.22458416 C12.8035522,7.78417611 12.4464999,7.42726872 12.0062368,7.42726872" id="Fill-3" fill="#ADB5BD"></path>
                    <g id="Group-7" transform="translate(0.000000, 0.084660)">
                        <mask id="mask-2" fill="white">
                            <use xlink:href="#path-1"></use>
                        </mask>
                        <g id="Clip-6"></g>
                        <path d="M18.9057472,10.0833874 C18.9057472,10.0833874 18.9238615,11.9293901 17.0482856,11.9293901 L16.4775528,11.9293901 L16.4775528,10.7334169 L16.8218481,10.7334169 C16.8218481,10.7334169 17.6100306,10.8059001 17.6010427,9.59180617 C17.6010427,9.59180617 17.4469434,10.0833874 16.3417192,10.0833874 C16.3417192,10.0833874 14.774197,9.97045852 14.774197,8.44120752 L14.774197,7.86134174 C14.774197,7.86134174 14.8104387,6.27569879 16.5319152,6.14885315 C16.5319152,6.14885315 17.2113729,6.07636993 17.6281514,6.6381149 L17.6281514,6.24859007 L18.9057472,6.24859007 L18.9057472,10.0833874 Z M12.0062078,10.0833874 C10.8402427,10.0833874 9.89520644,9.21329879 9.89520644,8.13996725 C9.89520644,7.06649074 10.8402427,6.19654711 12.0062078,6.19654711 C13.1721729,6.19654711 14.1173541,7.06649074 14.1173541,8.13996725 C14.1173541,9.21329879 13.1721729,10.0833874 12.0062078,10.0833874 L12.0062078,10.0833874 Z M9.02091383,6.3119404 L9.02091383,9.94523436 L7.76159034,9.94523436 L7.76159034,6.34818201 C7.76159034,5.85892027 7.15447087,5.72308671 7.15447087,5.72308671 L7.15447087,4.45463034 C9.16588027,4.53610148 9.02091383,6.3119404 9.02091383,6.3119404 L9.02091383,6.3119404 Z M6.75581315,8.3233498 C6.74668027,10.0319243 4.97997423,10.0810679 4.97997423,10.0810679 C4.29689235,10.0810679 3.91084671,9.62804779 3.91084671,9.62804779 L3.91084671,9.93610148 L2.62426953,9.93610148 L2.62426953,4.6297498 C2.61876081,4.62888 2.61847087,4.62786523 2.62426953,4.6267055 L2.62426953,4.6297498 C2.70400107,4.64265181 3.91084671,4.6267055 3.91084671,4.6267055 L3.91084671,6.6562357 C4.21353664,6.14030013 5.08869906,6.14885315 5.08869906,6.14885315 C6.99399302,6.32643705 6.75581315,8.3233498 6.75581315,8.3233498 L6.75581315,8.3233498 Z M18.6268252,0.0602625503 L2.87651114,0.0602625503 C1.28782389,0.0602625503 -5.79865772e-05,1.34814443 -5.79865772e-05,2.93683168 L-5.79865772e-05,12.2845579 C-5.79865772e-05,13.8732451 1.28782389,15.161127 2.87651114,15.161127 L8.43945342,15.161127 L10.3317004,19.6187001 C10.3317004,19.6187001 10.4617353,20.0053256 10.7771823,20.0053256 L10.7773272,20.0053256 C11.0926293,20.0053256 11.2228091,19.6187001 11.2228091,19.6187001 L13.1150561,15.161127 L18.6268252,15.161127 C20.2155125,15.161127 21.5035393,13.8732451 21.5035393,12.2845579 L21.5035393,2.93683168 C21.5035393,1.34814443 20.2155125,0.0602625503 18.6268252,0.0602625503 L18.6268252,0.0602625503 Z" id="Fill-5" fill="#ADB5BD" mask="url(#mask-2)"></path>
                    </g>
                    <path d="M16.9033917,7.44538953 C16.4729863,7.44538953 16.124197,7.79417879 16.124197,8.22458416 C16.124197,8.65498953 16.4729863,9.00377879 16.9033917,9.00377879 C17.333797,9.00377879 17.6825863,8.65498953 17.6825863,8.22458416 C17.6825863,7.79417879 17.333797,7.44538953 16.9033917,7.44538953" id="Fill-8" fill="#ADB5BD"></path>
                </g>
            </g>
        </g>
    </g>
</svg>