<?xml version="1.0" encoding="UTF-8"?>
<svg width="16px" height="16px" viewBox="0 0 16 16" version="1.1" xmlns="http://www.w3.org/2000/svg" xmlns:xlink="http://www.w3.org/1999/xlink">
    <!-- Generator: sketchtool 59.1 (101010) - https://sketch.com -->
    <title>B9FBB2D3-5F54-46E2-9C8A-C2C397E4025B</title>
    <desc>Created with sketchtool.</desc>
    <g id="Page-1" stroke="none" stroke-width="1" fill="none" fill-rule="evenodd">
        <g id="icon" transform="translate(-342.000000, -81.000000)">
            <g id="chat-3-line" transform="translate(342.000000, 81.000000)">
                <polygon id="Path" points="0 0 16 0 16 16 0 16"></polygon>
                <path d="M4.86066667,13.8826667 L1.33332581,14.6666742 L2.11733333,11.1393333 C1.60102116,10.1735888 1.33168458,9.0950973 1.33332581,8 C1.33332581,4.318 4.318,1.33333333 8,1.33333333 C11.682,1.33333333 14.6666667,4.318 14.6666667,8 C14.6666667,11.682 11.682,14.6666742 8,14.6666742 C6.9049027,14.6683154 5.82641122,14.3989788 4.86066667,13.8826667 L4.86066667,13.8826667 Z M5.054,12.474 L5.48933333,12.7073333 C6.2617001,13.1200928 7.12426177,13.3351606 8,13.3333449 C10.9455187,13.3333449 13.3333333,10.9455187 13.3333333,8 C13.3333333,5.05448133 10.9455187,2.66666667 8,2.66666667 C5.05448133,2.66666667 2.66666667,5.05448133 2.66666667,8 C2.66666667,8.88933333 2.88333333,9.74533333 3.29333333,10.5106667 L3.526,10.946 L3.08933333,12.9106667 L5.054,12.474 L5.054,12.474 Z" id="Shape" fill="#ADB5BD" fill-rule="nonzero"></path>
            </g>
        </g>
    </g>
</svg>