<?xml version="1.0" encoding="UTF-8"?>
<svg width="24px" height="24px" viewBox="0 0 24 24" version="1.1" xmlns="http://www.w3.org/2000/svg" xmlns:xlink="http://www.w3.org/1999/xlink">
    <!-- Generator: sketchtool 59.1 (101010) - https://sketch.com -->
    <title>4F5FF270-9C40-48C5-964A-7118E38A9AAE</title>
    <desc>Created with sketchtool.</desc>
    <g id="Page-1" stroke="none" stroke-width="1" fill="none" fill-rule="evenodd">
        <g id="icon" transform="translate(-253.000000, -81.000000)">
            <g id="instagram-fill" transform="translate(253.000000, 81.000000)">
                <polygon id="Path" points="0 0 24 0 24 24 0 24"></polygon>
                <path d="M12,2 C14.717,2 15.056,2.01 16.122,2.06 C17.187,2.11 17.912,2.277 18.55,2.525 C19.21,2.779 19.766,3.123 20.322,3.678 C20.8304937,4.17789596 21.2239536,4.78258896 21.475,5.45 C21.722,6.087 21.89,6.813 21.94,7.878 C21.987,8.944 22,9.283 22,12 C22,14.717 21.99,15.056 21.94,16.122 C21.89,17.187 21.722,17.912 21.475,18.55 C21.2246766,19.2177765 20.8311207,19.822617 20.322,20.322 C19.8219615,20.8303192 19.2173093,21.2237526 18.55,21.475 C17.913,21.722 17.187,21.89 16.122,21.94 C15.056,21.987 14.717,22 12,22 C9.283,22 8.944,21.99 7.878,21.94 C6.813,21.89 6.088,21.722 5.45,21.475 C4.78232618,21.2244734 4.17752722,20.8309445 3.678,20.322 C3.16940644,19.8221857 2.77593123,19.2174693 2.525,18.55 C2.277,17.913 2.11,17.187 2.06,16.122 C2.013,15.056 2,14.717 2,12 C2,9.283 2.01,8.944 2.06,7.878 C2.11,6.812 2.277,6.088 2.525,5.45 C2.7752361,4.7821794 3.16880364,4.17732106 3.678,3.678 C4.17767098,3.16923123 4.78242858,2.77572924 5.45,2.525 C6.088,2.277 6.812,2.11 7.878,2.06 C8.944,2.013 9.283,2 12,2 Z M12,7 C9.23857625,7 7,9.23857625 7,12 C7,14.7614237 9.23857625,17 12,17 C14.7614237,17 17,14.7614237 17,12 C17,9.23857625 14.7614237,7 12,7 L12,7 Z M18.5,6.75 C18.5,6.05964406 17.9403559,5.5 17.25,5.5 C16.5596441,5.5 16,6.05964406 16,6.75 C16,7.44035594 16.5596441,8 17.25,8 C17.9403559,8 18.5,7.44035594 18.5,6.75 Z M12,9 C13.6568542,9 15,10.3431458 15,12 C15,13.6568542 13.6568542,15 12,15 C10.3431458,15 9,13.6568542 9,12 C9,10.3431458 10.3431458,9 12,9 Z" id="Shape" fill="#ADB5BD" fill-rule="nonzero"></path>
            </g>
        </g>
    </g>
</svg>