<?xml version="1.0" encoding="UTF-8"?>
<svg width="28px" height="28px" viewBox="0 0 28 28" version="1.1" xmlns="http://www.w3.org/2000/svg" xmlns:xlink="http://www.w3.org/1999/xlink">
    <!-- Generator: sketchtool 59.1 (101010) - https://sketch.com -->
    <title>8DDD9127-D177-4CB6-A291-02FD43D4CAC3</title>
    <desc>Created with sketchtool.</desc>
    <g id="Page-1" stroke="none" stroke-width="1" fill="none" fill-rule="evenodd">
        <g id="icon" transform="translate(-689.000000, -244.000000)">
            <rect id="Rectangle" x="689" y="244" width="28" height="28"></rect>
            <g id="notification-2-line" transform="translate(693.000000, 248.000000)">
                <polygon id="Path" points="0 0 20 0 20 20 0 20"></polygon>
                <path d="M18.3333333,16.6666667 L1.66666667,16.6666667 L1.66666667,15 L2.5,15 L2.5,9.1925 C2.5,5.03583333 5.85833333,1.66666667 10,1.66666667 C14.1416667,1.66666667 17.5,5.03583333 17.5,9.1925 L17.5,15 L18.3333333,15 L18.3333333,16.6666667 Z M4.16666667,15 L15.8333333,15 L15.8333333,9.1925 C15.8333333,5.95666667 13.2216667,3.33333333 10,3.33333333 C6.77833333,3.33333333 4.16666667,5.95666667 4.16666667,9.1925 L4.16666667,15 Z M7.91666667,17.5 L12.0833333,17.5 C12.0833333,18.6505932 11.1505932,19.5833333 10,19.5833333 C8.84940677,19.5833333 7.91666667,18.6505932 7.91666667,17.5 L7.91666667,17.5 Z" id="Shape" fill="#495057" fill-rule="nonzero"></path>
            </g>
        </g>
    </g>
</svg>