<?xml version="1.0" encoding="UTF-8"?>
<svg width="211px" height="211px" viewBox="0 0 211 211" version="1.1" xmlns="http://www.w3.org/2000/svg" xmlns:xlink="http://www.w3.org/1999/xlink">
    <!-- Generator: sketchtool 59.1 (101010) - https://sketch.com -->
    <title>DB845E1A-05D7-4387-A0D3-181BC5A6CE21</title>
    <desc>Created with sketchtool.</desc>
    <g id="Page-1" stroke="none" stroke-width="1" fill="none" fill-rule="evenodd">
        <g id="icon" transform="translate(-45.000000, -211.000000)">
            <g id="img_photo_defult" transform="translate(45.000000, 211.000000)">
                <rect id="Rectangle" fill="#F1F3F5" x="0" y="0" width="211" height="211"></rect>
                <g id="Group-8" transform="translate(45.000000, 93.000000)">
                    <rect id="Rectangle" x="0" y="0" width="121.727273" height="26"></rect>
                    <g id="Group" transform="translate(0.000000, 2.363636)" fill="#CED4DA" fill-rule="nonzero">
                        <path d="M1.42108547e-14,18.352562 L1.42108547e-14,17.4223636 L0.930198347,17.4726446 C1.21512539,17.4726446 1.35758678,17.2882828 1.35758678,16.9195537 L1.35758678,4.77669421 C1.35758678,4.57556924 1.31568637,4.42891782 1.2318843,4.33673554 C1.14808223,4.24455326 0.997240759,4.20684289 0.779355372,4.22360331 L1.42108547e-14,4.2738843 L1.42108547e-14,3.34368595 L6.61195041,3.34368595 C8.50587724,3.34368595 9.90535085,3.69145933 10.8104132,4.38701653 C11.7154756,5.08257373 12.168,6.14265403 12.168,7.56728926 C12.168,8.94164324 11.7280457,10.043624 10.848124,10.8732645 C9.96820221,11.702905 8.78242068,12.117719 7.2907438,12.117719 L4.82697521,12.117719 L4.82697521,16.9195537 C4.82697521,17.2882828 4.99457684,17.4726446 5.32978512,17.4726446 L6.56166942,17.4223636 L6.56166942,18.352562 L1.42108547e-14,18.352562 Z M6.20970248,11.2126612 C6.88011905,11.2126612 7.43739447,10.8690778 7.88154545,10.1819008 C8.32569644,9.49472384 8.5477686,8.62319536 8.5477686,7.56728926 C8.5477686,6.57842481 8.32569644,5.77393698 7.88154545,5.15380165 C7.43739447,4.53366632 6.85497881,4.22360331 6.13428099,4.22360331 L5.12866116,4.22360331 C5.0616195,4.22360331 4.99457885,4.25293359 4.92753719,4.31159504 C4.86049553,4.37025649 4.82697521,4.44148718 4.82697521,4.52528926 L4.82697521,11.2126612 L6.20970248,11.2126612 Z M18.9810744,7.41644628 C20.5062721,7.41644628 21.7255739,7.83126031 22.6390165,8.66090083 C23.5524591,9.49054134 24.0175536,10.6679428 24.034314,12.1931405 L24.034314,13.1233388 L16.7938512,13.1233388 C16.7938512,14.5647345 17.0578238,15.6625252 17.5857769,16.4167438 C18.1137299,17.1709624 18.9056476,17.5564462 19.9615537,17.5732066 C20.7492932,17.5732066 21.4280798,17.3762747 21.9979339,16.982405 C22.567788,16.5885352 22.986792,16.1066805 23.2549587,15.5368264 L23.9337521,16.0144959 C23.5482625,16.8357562 22.9323265,17.4726424 22.0859256,17.9251736 C21.2395247,18.3777047 20.2213448,18.6039669 19.0313554,18.6039669 C17.0368661,18.6039669 15.5787319,18.1514425 14.6569091,17.2463802 C13.7350863,16.3413178 13.2741818,14.9418442 13.2741818,13.0479174 C13.2741818,11.1204697 13.7518465,9.70004589 14.7071901,8.78660331 C15.6625337,7.87316072 17.0871476,7.41644628 18.9810744,7.41644628 Z M18.9056529,8.27122314 C18.1849551,8.27122314 17.6570099,8.64413677 17.3218017,9.38997521 C16.9865934,10.1358136 16.8189917,11.1037131 16.8189917,12.2937025 L20.1626777,12.2937025 C20.3302818,12.2937025 20.4559831,12.2350419 20.5397851,12.117719 C20.6235872,12.0003961 20.6654876,11.782514 20.6654876,11.4640661 C20.6654876,10.3746392 20.5272163,9.57015136 20.2506694,9.05057851 C19.9741226,8.53100567 19.5257882,8.27122314 18.9056529,8.27122314 Z M36.0011901,17.4977851 L36.0011901,18.352562 L31.4256198,18.352562 L31.5010414,17.8183261 C31.5094216,17.7408098 31.5157067,17.6690548 31.5198967,17.6030611 L31.5513223,16.7435702 C30.8138641,17.9000388 29.6574128,18.4782645 28.0819339,18.4782645 C27.0260278,18.4782645 26.22573,18.2394321 25.6810165,17.7617603 C25.1363031,17.2840885 24.8639504,16.5759716 24.8639504,15.6373884 C24.8639504,14.4138782 25.4002756,13.5088294 26.4729421,12.9222149 C27.5456087,12.3356004 29.2383851,12.0422975 31.5513223,12.0422975 L31.5513223,10.2824628 C31.5513223,9.64556706 31.4423813,9.15114226 31.2244959,8.79917355 C31.0066105,8.44720485 30.5540861,8.27122314 29.8669091,8.27122314 C29.2802946,8.27122314 28.8654806,8.37178412 28.6224545,8.57290909 C28.3794285,8.77403406 28.2579174,9.01705643 28.2579174,9.30198347 C28.2579174,9.51986886 28.2998178,9.71261073 28.3836198,9.88021488 L28.4590414,10.1819011 C28.4758017,10.2657025 28.4841818,10.3327436 28.4841818,10.3830248 C28.4841818,10.7517539 28.3542906,11.0366767 28.0945041,11.2378017 C27.8347177,11.4389266 27.5037045,11.5394876 27.1014545,11.5394876 C26.6321629,11.5394876 26.2508692,11.4012163 25.957562,11.1246694 C25.6642547,10.8481226 25.5176033,10.5003492 25.5176033,10.0813388 C25.5176033,9.27683895 25.9366074,8.63157268 26.7746281,8.14552066 C27.6126488,7.65946864 28.7439598,7.41644628 30.168595,7.41644628 C33.2860321,7.41644628 34.8447273,8.53099712 34.8447273,10.7601322 L34.8447273,17.0703967 C34.8447273,17.3888446 34.9536683,17.5480661 35.1715537,17.5480661 L36.0011901,17.4977851 Z M29.5149421,16.9949752 C30.034515,16.9949752 30.4828494,16.772903 30.8599587,16.3287521 C31.237068,15.8846011 31.4675202,15.3021854 31.5513223,14.5814876 L31.5513223,12.9222149 C30.4116141,12.9222149 29.5819861,13.1233368 29.0624132,13.5255868 C28.5428404,13.9278367 28.2830579,14.5312026 28.2830579,15.3357025 C28.2830579,16.4418898 28.6936818,16.9949752 29.5149421,16.9949752 Z M42.4120165,7.41644628 C43.2500372,7.41644628 44.0042446,7.53376742 44.6746612,7.76841322 C45.3450777,8.00305902 45.8688328,8.32150212 46.2459421,8.72375207 C46.6230515,9.12600201 46.8116033,9.57014633 46.8116033,10.0561983 C46.8116033,10.4919691 46.673332,10.8606927 46.3967851,11.1623802 C46.1202383,11.4640676 45.7305645,11.6149091 45.2277521,11.6149091 C44.8255021,11.6149091 44.4944889,11.5185382 44.2347025,11.3257934 C43.9749161,11.1330486 43.8450248,10.8523159 43.8450248,10.4835868 C43.8450248,10.332743 43.8785451,10.1567613 43.9455868,9.95563636 C44.0293888,9.78803222 44.0712893,9.60367043 44.0712893,9.40254545 C44.0712893,9.03381634 43.9246378,8.75308361 43.6313306,8.56033884 C43.3380233,8.36759408 42.9734898,8.27122314 42.537719,8.27122314 C41.8170212,8.27122314 41.2555557,8.61061644 40.8533058,9.28941322 C40.4510558,9.96821001 40.2499339,11.1204712 40.2499339,12.7462314 C40.2499339,14.5563562 40.4971463,15.8301285 40.9915785,16.5675868 C41.4860107,17.305045 42.1689874,17.6737686 43.0405289,17.6737686 C43.7277059,17.6737686 44.352022,17.4852168 44.9134959,17.1081074 C45.4749697,16.7309981 45.9065439,16.1150621 46.2082314,15.260281 L46.9875868,15.6373884 C46.266889,17.6151173 44.7500942,18.6039669 42.437157,18.6039669 C40.7946364,18.6039669 39.4412533,18.1514425 38.3769669,17.2463802 C37.3126806,16.3413178 36.7805455,14.9586043 36.7805455,13.0981983 C36.7805455,11.2377924 37.3001105,9.82574862 38.3392562,8.86202479 C39.3784019,7.89830097 40.7359751,7.41644628 42.4120165,7.41644628 Z M60.588595,17.4977851 L60.588595,18.352562 L54.856562,18.352562 L54.856562,17.4977851 L55.8119008,17.5480661 C56.0297862,17.4977849 56.1387273,17.3385633 56.1387273,17.0703967 L56.1387273,10.9863967 C56.1387273,10.0980947 56.0674966,9.4779687 55.9250331,9.126 C55.7825695,8.7740313 55.4599364,8.59804959 54.957124,8.59804959 C54.5213532,8.59804959 54.0981591,8.78241138 53.6875289,9.1511405 C53.2768988,9.51986961 52.9375055,10.0645749 52.6693388,10.7852727 C52.4011722,11.5059705 52.2670909,12.3691189 52.2670909,13.3747438 L52.2670909,17.0703967 C52.2670909,17.3888446 52.376032,17.5480661 52.5939174,17.5480661 L53.5743967,17.4977851 L53.5743967,18.352562 L47.8172231,18.352562 L47.8172231,17.4977851 L48.6468595,17.5480661 C48.8647449,17.4977849 48.973686,17.3385633 48.973686,17.0703967 L48.973686,1.28216529 C48.973686,0.997238245 48.8647449,0.829636615 48.6468595,0.779355372 L47.8172231,0.829636364 L47.8172231,-5.04485342e-13 L52.2670909,-5.04485342e-13 L52.2670909,9.95563636 C52.63582,9.15113647 53.151195,8.5268204 53.8132314,8.08266942 C54.4752678,7.63851844 55.2588054,7.41644628 56.1638678,7.41644628 C57.3035759,7.41644628 58.133204,7.70555909 58.6527769,8.28379339 C59.1723497,8.86202768 59.4321322,9.77126653 59.4321322,11.0115372 L59.4321322,17.0703967 C59.4321322,17.3888446 59.5410733,17.5480661 59.7589587,17.5480661 L60.588595,17.4977851 Z" id="Peach"></path>
                        <path d="M71.0083636,8.10297521 C71.6143171,8.10297521 72.0945602,8.33181589 72.4491074,8.78950413 C72.8036547,9.24719237 72.9809256,9.85635983 72.9809256,10.6170248 C72.9809256,11.5195086 72.7810929,12.4380945 72.3814215,13.3728099 C71.9817501,14.3075253 71.4370448,15.0810713 70.7472893,15.6934711 C70.0575337,16.3058708 69.3065495,16.6120661 68.494314,16.6120661 C68.1075353,16.6120661 67.7594396,16.5411577 67.4500165,16.3993388 C67.1405935,16.25752 66.8956373,16.0705797 66.7151405,15.8385124 L66.4229083,17.946451 C66.2653326,19.1497561 66.182248,19.9490889 66.1736529,20.3444628 C66.1736529,20.4991743 66.2316688,20.5765289 66.3477025,20.5765289 L67.5660496,20.5378512 L67.4886942,21.0406612 L63.7369587,21.0406612 L63.814314,20.5378512 L64.4138182,20.5765289 C64.5556371,20.5636363 64.6458841,20.434712 64.684562,20.1897521 L65.0273868,17.9953544 C65.1820971,16.9641653 65.3579043,15.7488575 65.5548099,14.3494215 L65.9609263,11.2938803 C66.051174,10.5396673 66.0962975,10.0497532 66.0962975,9.82413223 C66.0962975,9.41156819 65.9093572,9.20528926 65.5354711,9.20528926 C65.4323301,9.20528926 65.3291906,9.21818169 65.2260496,9.24396694 L65.1293554,8.6831405 C65.5032415,8.52842898 65.8481141,8.40595086 66.1639835,8.31570248 C66.4798528,8.22545409 66.7989405,8.18033058 67.1212562,8.18033058 C67.5982834,8.18033058 67.8367934,8.30280869 67.8367934,8.5477686 L67.81262,8.7822514 C67.7642732,9.13518373 67.6434059,9.84346576 67.4500165,10.9071074 L67.3920001,11.3180576 C67.366215,11.4695449 67.3339837,11.6355363 67.2953058,11.8160331 C67.8625813,10.539663 68.4685257,9.60173853 69.113157,9.0022314 C69.7577883,8.40272428 70.3895176,8.10297521 71.0083636,8.10297521 Z M71.0277025,12.8990083 C71.182414,12.2930548 71.2597686,11.6871105 71.2597686,11.081157 C71.2597686,10.4880962 71.1695216,10.0207455 70.9890248,9.67909091 C70.808528,9.33743631 70.5829104,9.16661157 70.3121653,9.16661157 C69.9511717,9.16661157 69.4999366,9.4889224 68.9584463,10.1335537 C68.416956,10.778185 67.9431591,11.5323924 67.5370413,12.3961983 C67.1309236,13.2600043 66.9278678,13.994873 66.9278678,14.6008264 C66.9278678,15.1423168 67.0858001,15.5161973 67.4016694,15.7224793 C67.7175388,15.9287614 68.0559651,16.0319008 68.4169587,16.0319008 C69.1002679,16.0319008 69.6546425,15.7321518 70.0800992,15.1326446 C70.5055558,14.5331375 70.8214205,13.7885995 71.0277025,12.8990083 Z M75.7850579,3.82909091 C75.7850579,3.67437939 75.7270419,3.55834749 75.6110083,3.48099174 C75.4949746,3.40363598 75.3402654,3.36495868 75.146876,3.36495868 C74.9534866,3.36495868 74.7987774,3.37785111 74.6827438,3.40363636 L74.5667107,2.92016529 C75.4305167,2.50760124 76.2234013,2.30132231 76.9453884,2.30132231 C77.1516705,2.30132231 77.3096028,2.33033029 77.4191901,2.38834711 C77.5287774,2.44636393 77.5835702,2.55917272 77.5835702,2.72677686 L77.5678576,2.94071257 C77.5573824,3.03498911 77.5416697,3.15223038 77.5207193,3.29243664 L77.0614215,5.99504132 C76.8486932,7.31008922 76.6522842,8.59248835 76.4721914,9.84226018 L76.1619261,12.1039698 C76.0209831,13.2170285 75.9404849,14.0493085 75.9204298,14.6008264 C75.9204298,14.755538 75.9429915,14.8812392 75.9881157,14.9779339 C76.0332399,15.0746286 76.1331563,15.1229752 76.2878678,15.1229752 C76.3781162,15.1229752 76.4973712,15.1036366 76.6456364,15.0649587 C76.7939016,15.0262808 76.9389414,14.9618186 77.0807603,14.8715702 L77.3128264,15.2583471 C76.913155,15.6838038 76.5038203,16.0157839 76.0848099,16.2542975 C75.6657996,16.4928111 75.3015883,16.6120661 74.9921653,16.6120661 C74.760098,16.6120661 74.5763808,16.5379346 74.4410083,16.3896694 C74.3056357,16.2414042 74.2379504,16.0190097 74.2379504,15.7224793 L74.2467833,15.549032 C74.2909478,14.9889432 74.5007293,13.4803234 74.8761322,11.0231405 L75.4742776,6.82970294 C75.6814651,5.29020043 75.7850579,4.2900023 75.7850579,3.82909091 Z M85.5124959,15.1229752 C85.7445631,15.1229752 85.9895194,15.0391744 86.2473719,14.8715702 L86.479438,15.2583471 C86.0926592,15.7224817 85.6833245,16.0641311 85.2514215,16.2833058 C84.8195185,16.5024804 84.4424148,16.6120661 84.1200992,16.6120661 C83.9396024,16.6120661 83.8171243,16.5411577 83.7526612,16.3993388 C83.688198,16.25752 83.6559669,16.0319024 83.6559669,15.7224793 C83.6559669,15.3485932 83.7913375,14.3752145 84.0620826,12.802314 C83.3272029,14.1947177 82.6696889,15.1777657 82.0895207,15.7514876 C81.5093525,16.3252095 80.9098543,16.6120661 80.2910083,16.6120661 C79.7237327,16.6120661 79.28539,16.4025641 78.9759669,15.9835537 C78.6665439,15.5645434 78.5118347,14.987607 78.5118347,14.2527273 C78.5118347,13.3502434 78.7342292,12.4187651 79.1790248,11.4582645 C79.6238204,10.4977638 80.2168723,9.69843294 80.9581983,9.06024793 C81.6995244,8.42206292 82.4762935,8.10297521 83.2885289,8.10297521 C83.597952,8.10297521 83.8848086,8.16743737 84.1491074,8.29636364 C84.4134063,8.4252899 84.6293545,8.59933775 84.7969587,8.8185124 L84.9129917,8.39305785 L86.5374545,8.12231405 L86.0733223,10.0368595 C85.8992719,10.8104171 85.7469793,11.547706 85.6164423,12.2487385 L85.493157,12.937686 C85.3384455,13.8401698 85.2610909,14.4590066 85.2610909,14.7942149 C85.2610909,15.0133895 85.3448917,15.1229752 85.5124959,15.1229752 Z M80.9872066,15.5484298 C81.3610928,15.5484298 81.8348897,15.2003341 82.4086116,14.5041322 C82.9823334,13.8079304 83.4819152,12.9957071 83.9073719,12.067438 C84.3328286,11.1391689 84.5455537,10.3591767 84.5455537,9.72743802 C84.5455537,9.43090761 84.4295218,9.18272827 84.1974545,8.98289256 C83.9653873,8.78305685 83.6753075,8.6831405 83.3272066,8.6831405 C82.6310048,8.6831405 82.041176,8.98933578 81.5577025,9.60173554 C81.074229,10.2141353 80.7229102,10.9909044 80.5037355,11.9320661 C80.3232388,12.6024827 80.2329917,13.3051203 80.2329917,14.04 C80.2329917,14.5299198 80.3039001,14.9038004 80.445719,15.1616529 C80.5875379,15.4195054 80.768032,15.5484298 80.9872066,15.5484298 Z M96.090843,15.2583471 C95.6911716,15.6709112 95.2818368,15.9996682 94.8628264,16.2446281 C94.4438161,16.489588 94.0924973,16.6120661 93.8088595,16.6120661 C93.6283627,16.6120661 93.4800998,16.5347115 93.3640661,16.38 C93.2480325,16.2252885 93.1900165,16.0125633 93.1900165,15.7418182 C93.1900165,15.5664785 93.2188956,15.3086293 93.2766544,14.9682653 L93.3253884,14.6975207 C93.4156368,14.2204935 93.5123301,13.7241348 93.6154711,13.2084298 L93.7964833,12.3559709 C94.0110159,11.2998108 94.118281,10.5654566 94.118281,10.1528926 C94.118281,9.85636215 94.0441495,9.61785214 93.8958843,9.43735537 C93.7476191,9.2568586 93.5445633,9.16661157 93.2867107,9.16661157 C92.899932,9.16661157 92.4680354,9.42768334 91.9910083,9.94983471 C91.5139811,10.4719861 91.0691921,11.1262771 90.6566281,11.9127273 C90.2440641,12.6991775 89.9410919,13.4662773 89.7477025,14.2140496 L89.4769587,16.4186777 L87.9685289,16.4186777 L88.0301714,16.063327 C88.0406466,16.006922 88.0523305,15.9448764 88.0652231,15.8771901 L88.4504214,13.4933813 C88.5325126,12.9645246 88.6039477,12.485988 88.6647273,12.0577686 L88.7689205,11.2636903 C88.8412768,10.6539249 88.8774545,10.1740749 88.8774545,9.82413223 C88.8774545,9.41156819 88.6905143,9.20528926 88.3166281,9.20528926 C88.2134871,9.20528926 88.1103476,9.21818169 88.0072066,9.24396694 L87.9105124,8.6831405 C88.2843986,8.52842898 88.6292711,8.40595086 88.9451405,8.31570248 C89.2610098,8.22545409 89.5800976,8.18033058 89.9024132,8.18033058 C90.3794404,8.18033058 90.6179504,8.30280869 90.6179504,8.5477686 L90.6063472,8.69783778 C90.5908762,8.83604552 90.5599343,9.05057671 90.5135211,9.34143254 L90.0377851,12.1254545 C90.5019197,11.0038017 91.0691867,10.0529791 91.7396033,9.27297521 C92.4100199,8.49297131 93.157781,8.10297521 93.9829091,8.10297521 C94.5115068,8.10297521 94.9305108,8.26413062 95.2399339,8.58644628 C95.5493569,8.90876194 95.7040661,9.32776602 95.7040661,9.84347107 C95.7040661,10.1271089 95.6621657,10.4784277 95.5783636,10.897438 C95.4945616,11.3164484 95.4075376,11.72256 95.3172893,12.1157851 L95.1432397,12.8796694 L95.1432397,12.8796694 L94.9980785,13.4899193 C94.8498934,14.1316831 94.7758017,14.5277678 94.7758017,14.6781818 C94.7758017,14.7813228 94.8015865,14.8812392 94.853157,14.9779339 C94.9047275,15.0746286 95.0014208,15.1229752 95.1432397,15.1229752 C95.3624143,15.1229752 95.6009243,15.0391744 95.8587769,14.8715702 L96.090843,15.2583471 Z M105.83762,15.2583471 C105.437948,15.6709112 105.028614,15.9996682 104.609603,16.2446281 C104.190593,16.489588 103.839274,16.6120661 103.555636,16.6120661 C103.37514,16.6120661 103.226877,16.5347115 103.110843,16.38 C102.994809,16.2252885 102.936793,16.0125633 102.936793,15.7418182 C102.936793,15.5664785 102.965672,15.3086293 103.023431,14.9682653 L103.072165,14.6975207 C103.162414,14.2204935 103.259107,13.7241348 103.362248,13.2084298 L103.54326,12.3559709 C103.757793,11.2998108 103.865058,10.5654566 103.865058,10.1528926 C103.865058,9.85636215 103.790926,9.61785214 103.642661,9.43735537 C103.494396,9.2568586 103.29134,9.16661157 103.033488,9.16661157 C102.646709,9.16661157 102.214812,9.42768334 101.737785,9.94983471 C101.260758,10.4719861 100.815969,11.1262771 100.403405,11.9127273 C99.9908409,12.6991775 99.6878687,13.4662773 99.4944793,14.2140496 L99.2237355,16.4186777 L97.7153058,16.4186777 L97.7769482,16.063327 C97.7874235,16.006922 97.7991074,15.9448764 97.812,15.8771901 L98.1971983,13.4933813 C98.2792895,12.9645246 98.3507246,12.485988 98.4115041,12.0577686 L98.5156974,11.2636903 C98.5880537,10.6539249 98.6242314,10.1740749 98.6242314,9.82413223 C98.6242314,9.41156819 98.4372911,9.20528926 98.063405,9.20528926 C97.9602639,9.20528926 97.8571245,9.21818169 97.7539835,9.24396694 L97.6572893,8.6831405 C98.0311754,8.52842898 98.376048,8.40595086 98.6919174,8.31570248 C99.0077867,8.22545409 99.3268744,8.18033058 99.6491901,8.18033058 C100.126217,8.18033058 100.364727,8.30280869 100.364727,8.5477686 L100.353124,8.69783778 C100.337653,8.83604552 100.306711,9.05057671 100.260298,9.34143254 L99.784562,12.1254545 C100.248697,11.0038017 100.815964,10.0529791 101.48638,9.27297521 C102.156797,8.49297131 102.904558,8.10297521 103.729686,8.10297521 C104.258284,8.10297521 104.677288,8.26413062 104.986711,8.58644628 C105.296134,8.90876194 105.450843,9.32776602 105.450843,9.84347107 C105.450843,10.1271089 105.408943,10.4784277 105.32514,10.897438 C105.241338,11.3164484 105.154315,11.72256 105.064066,12.1157851 L104.890017,12.8796694 L104.890017,12.8796694 L104.744855,13.4899193 C104.59667,14.1316831 104.522579,14.5277678 104.522579,14.6781818 C104.522579,14.7813228 104.548363,14.8812392 104.599934,14.9779339 C104.651504,15.0746286 104.748198,15.1229752 104.890017,15.1229752 C105.109191,15.1229752 105.347701,15.0391744 105.605554,14.8715702 L105.83762,15.2583471 Z M114.01795,9.99818182 C114.01795,10.4494237 113.837456,10.8813203 113.476463,11.2938843 C113.115469,11.7064483 112.538533,12.0577671 111.745636,12.3478512 C110.95274,12.6379353 109.943907,12.8280987 108.719107,12.9183471 C108.706215,13.0343807 108.699769,13.2084286 108.699769,13.4404959 C108.699769,14.0851272 108.838362,14.5976014 109.115554,14.9779339 C109.392745,15.3582664 109.75051,15.5484298 110.18886,15.5484298 C110.769028,15.5484298 111.619928,15.1938878 112.741587,14.4847934 L113.167041,14.7942149 C112.651336,15.3228126 112.093739,15.7547091 111.494231,16.0899174 C110.894724,16.4251256 110.298449,16.5927273 109.705388,16.5927273 C108.918938,16.5927273 108.26787,16.31554 107.752165,15.761157 C107.23646,15.2067741 106.978612,14.4783516 106.978612,13.5758678 C106.978612,12.7120618 107.19456,11.854715 107.626463,11.0038017 C108.058366,10.1528883 108.628856,9.45669692 109.33795,8.91520661 C110.047045,8.3737163 110.794806,8.10297521 111.581256,8.10297521 C112.277458,8.10297521 112.857618,8.28669238 113.321752,8.65413223 C113.785887,9.02157209 114.01795,9.46958413 114.01795,9.99818182 Z M111.542579,8.6831405 C110.691665,8.6831405 109.989028,9.20528403 109.434645,10.2495868 C109.099436,10.9071107 108.886711,11.5904097 108.796463,12.2995041 C110.021262,12.2092557 110.968856,11.9417378 111.639273,11.4969421 C112.309689,11.0521465 112.644893,10.5138875 112.644893,9.88214876 C112.644893,9.54694047 112.551422,9.26330695 112.364479,9.03123967 C112.177536,8.79917239 111.903572,8.6831405 111.542579,8.6831405 Z M120.129025,8.10297521 C120.515804,8.10297521 120.831668,8.24156886 121.076628,8.51876033 C121.321588,8.7959518 121.444066,9.12148573 121.444066,9.4953719 C121.444066,9.79190231 121.360265,10.0594203 121.192661,10.2979339 C121.025057,10.5364475 120.773655,10.6557025 120.438446,10.6557025 C120.232164,10.6557025 120.071009,10.6073559 119.954975,10.5106612 C119.838942,10.4139665 119.780926,10.281819 119.780926,10.1142149 C119.780926,10.0368591 119.798116,9.95234167 119.832496,9.86066136 L119.896959,9.7177686 C119.974314,9.56950339 120.012992,9.46314082 120.012992,9.39867769 C120.012992,9.3084293 119.980761,9.2310747 119.916298,9.16661157 C119.851834,9.10214844 119.768034,9.06991736 119.664893,9.06991736 C119.368362,9.06991736 119.033159,9.35677399 118.659273,9.93049587 C118.285387,10.5042177 117.940514,11.2197478 117.624645,12.0771074 C117.308775,12.9344671 117.073488,13.7628059 116.918777,14.5621488 L116.686711,16.4186777 L115.178281,16.4186777 L115.239923,16.063327 C115.250399,16.006922 115.262083,15.9448764 115.274975,15.8771901 L115.660173,13.4933813 C115.742265,12.9645246 115.8137,12.485988 115.874479,12.0577686 L115.978673,11.2636903 C116.051029,10.6539249 116.087207,10.1740749 116.087207,9.82413223 C116.087207,9.41156819 115.900266,9.20528926 115.52638,9.20528926 C115.423239,9.20528926 115.3201,9.21818169 115.216959,9.24396694 L115.120264,8.6831405 C115.494151,8.52842898 115.839023,8.40595086 116.154893,8.31570248 C116.470762,8.22545409 116.78985,8.18033058 117.112165,8.18033058 C117.589192,8.18033058 117.827702,8.30280869 117.827702,8.5477686 L117.812423,8.74831937 C117.776769,9.05582983 117.678723,9.62071214 117.518281,10.4429752 L117.344231,11.4872727 C117.73101,10.4945405 118.150014,9.68231721 118.601256,9.05057851 C119.052498,8.41883982 119.561749,8.10297521 120.129025,8.10297521 Z" id="planner"></path>
                    </g>
                </g>
            </g>
        </g>
    </g>
</svg>