<svg width="641" height="430" viewBox="0 0 641 430" fill="none" xmlns="http://www.w3.org/2000/svg">
    <rect width="641" height="430" rx="10" fill="#F1F3F5"/>
    <path fill-rule="evenodd" clip-rule="evenodd" d="M308.493 229.839h11.024v-1.644l-1.596.097c-.419 0-.628-.306-.628-.918v-11.652c0-2.385-.5-4.134-1.499-5.246-.999-1.112-2.595-1.668-4.787-1.668-1.74 0-3.247.427-4.52 1.281-1.273.855-2.264 2.055-2.973 3.602v-19.145h-8.558v1.595l1.596-.096c.419.096.628.419.628.967v30.362c0 .515-.209.821-.628.918l-1.596-.097v1.644h11.072v-1.644l-1.886.097c-.419 0-.628-.306-.628-.918v-7.107c0-1.934.257-3.594.773-4.98.516-1.386 1.169-2.434 1.958-3.143.79-.709 1.604-1.063 2.442-1.063.967 0 1.587.338 1.861 1.015.274.677.411 1.869.411 3.578v11.7c0 .515-.209.821-.628.918l-1.838-.097v1.644zM203 228.05v1.789h12.619v-1.789l-2.369.097c-.645 0-.967-.354-.967-1.064v-9.234h4.738c2.868 0 5.149-.798 6.841-2.393 1.692-1.595 2.538-3.715 2.538-6.358 0-2.739-.87-4.778-2.611-6.116-1.74-1.337-4.432-2.006-8.074-2.006H203v1.789l1.499-.097c.419-.032.709.041.87.218.161.177.242.459.242.846v23.351c0 .71-.274 1.064-.822 1.064L203 228.05zm15.157-13.924c-.854 1.322-1.926 1.983-3.215 1.983h-2.659v-12.861c0-.161.064-.298.193-.411.129-.112.258-.169.387-.169h1.934c1.386 0 2.506.596 3.36 1.789.854 1.193 1.281 2.74 1.281 4.641 0 2.031-.427 3.707-1.281 5.028zm21.345-5.318c2.933 0 5.278.798 7.035 2.393 1.756 1.596 2.651 3.86 2.683 6.793v1.789h-13.924c0 2.772.508 4.883 1.523 6.334 1.015 1.45 2.538 2.191 4.569 2.224 1.514 0 2.82-.379 3.916-1.137 1.096-.757 1.901-1.684 2.417-2.78l1.305.919c-.741 1.579-1.925 2.804-3.553 3.674-1.628.871-3.586 1.306-5.874 1.306-3.836 0-6.64-.87-8.413-2.611-1.772-1.74-2.659-4.432-2.659-8.074 0-3.707.919-6.438 2.756-8.195 1.837-1.756 4.577-2.635 8.219-2.635zm-3.191 3.796c.645-1.435 1.66-2.152 3.046-2.152 1.193 0 2.055.5 2.587 1.499.531.999.797 2.546.797 4.641 0 .613-.08 1.032-.241 1.257-.162.226-.403.339-.726.339h-6.43c0-2.289.323-4.15.967-5.584zm35.922 17.235h-8.799l.145-1.027c.016-.149.028-.287.036-.414l.061-1.653c-1.419 2.224-3.643 3.336-6.672 3.336-2.031 0-3.57-.459-4.617-1.378-1.048-.918-1.572-2.28-1.572-4.085 0-2.353 1.032-4.094 3.095-5.222 2.062-1.128 5.318-1.692 9.766-1.692v-3.384c0-1.225-.21-2.176-.629-2.853-.419-.676-1.289-1.015-2.611-1.015-1.128 0-1.925.193-2.393.58-.467.387-.701.854-.701 1.402 0 .419.081.79.242 1.112l.145.58c.032.162.048.291.048.387 0 .709-.25 1.257-.749 1.644-.5.387-1.136.58-1.91.58-.902 0-1.636-.266-2.2-.798-.564-.531-.846-1.2-.846-2.006 0-1.547.806-2.788 2.418-3.723 1.611-.934 3.787-1.402 6.527-1.402 5.995 0 8.992 2.144 8.992 6.43v12.136c0 .612.21.918.629.918l1.595-.097v1.644zm-9.887-3.892c-.725.854-1.587 1.282-2.586 1.282-1.58 0-2.37-1.064-2.37-3.191 0-1.547.5-2.708 1.499-3.481.999-.774 2.595-1.161 4.787-1.161v3.191c-.162 1.386-.605 2.506-1.33 3.36zm22.216-17.139c1.611 0 3.062.226 4.351.677 1.289.451 2.296 1.064 3.022 1.837.725.774 1.087 1.628 1.087 2.563 0 .838-.266 1.547-.797 2.127-.532.58-1.282.87-2.249.87-.773 0-1.41-.185-1.909-.556-.5-.37-.75-.91-.75-1.619 0-.29.065-.629.194-1.016.161-.322.241-.677.241-1.063 0-.709-.282-1.249-.846-1.62-.564-.371-1.265-.556-2.103-.556-1.386 0-2.465.653-3.239 1.958-.774 1.306-1.16 3.521-1.16 6.648 0 3.481.475 5.93 1.426 7.349.951 1.418 2.264 2.127 3.94 2.127a6.32 6.32 0 0 0 3.602-1.088c1.08-.725 1.91-1.91 2.49-3.553l1.499.725c-1.386 3.803-4.303 5.705-8.751 5.705-3.159 0-5.761-.87-7.808-2.611-2.047-1.74-3.07-4.4-3.07-7.977 0-3.578.999-6.293 2.997-8.147 1.999-1.853 4.609-2.78 7.833-2.78zM348.74 201.91c0-.298-.111-.521-.334-.67-.223-.148-.521-.223-.893-.223s-.669.025-.892.075l-.224-.93c1.662-.794 3.186-1.19 4.575-1.19.397 0 .7.055.911.167.211.112.316.329.316.651l-.03.411c-.02.182-.05.407-.091.677l-.883 5.197a432.143 432.143 0 0 0-1.133 7.398l-.597 4.35c-.271 2.14-.426 3.741-.464 4.802 0 .297.043.539.13.725.087.186.279.279.576.279.174 0 .403-.037.688-.112a2.91 2.91 0 0 0 .837-.372l.446.744c-.768.818-1.555 1.457-2.361 1.915-.806.459-1.506.688-2.101.688-.447 0-.8-.142-1.06-.427-.261-.285-.391-.713-.391-1.283l.017-.334c.085-1.077.489-3.978 1.211-8.704l1.15-8.064c.398-2.96.597-4.884.597-5.77zm-6.415 9.539c-.682-.88-1.605-1.32-2.77-1.32-1.191 0-2.405.576-3.645 1.729-1.24 1.153-2.405 2.957-3.496 5.411.074-.347.136-.666.186-.957l.112-.791c.371-2.045.604-3.407.697-4.086l.046-.451c0-.471-.458-.707-1.376-.707-.62 0-1.233.087-1.841.261-.607.173-1.27.409-1.989.706l.186 1.079c.198-.05.396-.074.595-.074.719 0 1.078.396 1.078 1.19 0 .434-.087 1.376-.26 2.826l-.781 5.876a830.602 830.602 0 0 1-1.014 7.012l-.66 4.22c-.074.471-.248.719-.52.743l-1.153-.074-.149.967h7.215l.149-.967-2.343.074c-.223 0-.335-.148-.335-.446.017-.76.176-2.297.479-4.612l.562-4.053c.347.446.818.806 1.414 1.078.595.273 1.264.409 2.008.409 1.562 0 3.006-.588 4.332-1.766 1.327-1.178 2.374-2.665 3.143-4.463.769-1.798 1.153-3.564 1.153-5.3 0-1.462-.341-2.634-1.023-3.514zm-2.287 4.407c0 1.165-.149 2.331-.446 3.496-.397 1.711-1.004 3.142-1.823 4.295-.818 1.153-1.884 1.73-3.198 1.73a3.51 3.51 0 0 1-1.952-.595c-.608-.397-.912-1.116-.912-2.157 0-1.166.391-2.579 1.172-4.24.781-1.661 1.692-3.112 2.733-4.351 1.042-1.24 1.909-1.86 2.604-1.86.52 0 .954.329 1.301.986s.521 1.555.521 2.696zm28.822 7.289c-.496.323-.967.484-1.413.484-.322 0-.483-.211-.483-.633 0-.644.148-1.834.446-3.57l.237-1.325c.251-1.348.544-2.766.879-4.253l.892-3.682-3.124.521-.223.818a3.43 3.43 0 0 0-1.246-1.004 3.723 3.723 0 0 0-1.655-.372c-1.562 0-3.056.613-4.481 1.841-1.426 1.227-2.566 2.764-3.422 4.611-.855 1.847-1.283 3.639-1.283 5.374 0 1.413.298 2.523.893 3.329.595.805 1.438 1.208 2.529 1.208 1.19 0 2.343-.551 3.458-1.655 1.116-1.103 2.381-2.993 3.794-5.671-.521 3.025-.781 4.897-.781 5.616 0 .595.062 1.029.186 1.301.124.273.359.409.706.409.62 0 1.345-.21 2.176-.632.831-.421 1.618-1.078 2.362-1.971l-.447-.744zm-10.115 1.302c.719 0 1.63-.67 2.733-2.008 1.103-1.339 2.064-2.901 2.882-4.686.818-1.785 1.228-3.285 1.228-4.5 0-.571-.224-1.048-.67-1.432-.446-.384-1.004-.577-1.673-.577-1.339 0-2.474.589-3.403 1.767-.93 1.178-1.606 2.671-2.027 4.481a15.54 15.54 0 0 0-.521 4.054c0 .942.137 1.661.409 2.157.273.496.62.744 1.042.744zm26.683 1.339c.806-.471 1.593-1.104 2.362-1.897l-.446-.744c-.496.323-.955.484-1.376.484-.273 0-.459-.093-.558-.279a1.213 1.213 0 0 1-.149-.577c0-.289.143-1.051.428-2.285l.279-1.173.334-1.469c.174-.757.341-1.538.503-2.343.161-.806.241-1.482.241-2.027 0-.992-.297-1.798-.892-2.418-.595-.619-1.401-.929-2.418-.929-1.586 0-3.024.75-4.314 2.25-1.289 1.5-2.38 3.328-3.272 5.485l.914-5.354c.09-.559.149-.972.179-1.237l.022-.289c0-.471-.458-.707-1.376-.707-.62 0-1.233.087-1.841.261-.607.173-1.27.409-1.989.706l.186 1.079c.198-.05.396-.074.595-.074.719 0 1.078.396 1.078 1.19 0 .673-.069 1.595-.209 2.768l-.2 1.527c-.117.824-.254 1.744-.412 2.761l-.741 4.584-.067.358-.119.683h2.901l.521-4.239c.372-1.438.954-2.913 1.748-4.426.793-1.512 1.648-2.771 2.566-3.775.917-1.004 1.748-1.506 2.491-1.506.496 0 .887.174 1.172.521.285.347.428.806.428 1.376 0 .793-.207 2.205-.619 4.237l-.348 1.639c-.199.992-.385 1.946-.558 2.864l-.094.52c-.111.655-.166 1.151-.166 1.488 0 .52.111.93.334 1.227.223.298.509.446.856.446.545 0 1.221-.235 2.026-.706zm21.106-1.897c-.769.793-1.556 1.426-2.362 1.897-.805.471-1.481.706-2.027.706-.347 0-.632-.148-.855-.446-.223-.297-.335-.707-.335-1.227 0-.337.056-.833.167-1.488l.094-.52c.173-.918.359-1.872.558-2.864l.348-1.639c.412-2.032.618-3.444.618-4.237 0-.57-.142-1.029-.427-1.376-.285-.347-.676-.521-1.172-.521-.744 0-1.574.502-2.491 1.506-.918 1.004-1.773 2.263-2.567 3.775-.793 1.513-1.376 2.988-1.747 4.426l-.521 4.239h-2.901l.119-.683.067-.358.741-4.584c.158-1.017.295-1.937.412-2.761l.2-1.527c.139-1.173.209-2.095.209-2.768 0-.794-.36-1.19-1.079-1.19a2.43 2.43 0 0 0-.595.074l-.186-1.079a18.678 18.678 0 0 1 1.99-.706 6.657 6.657 0 0 1 1.841-.261c.917 0 1.376.236 1.376.707l-.022.289c-.03.265-.09.678-.179 1.237l-.915 5.354c.893-2.157 1.984-3.985 3.273-5.485 1.289-1.5 2.727-2.25 4.314-2.25 1.017 0 1.822.31 2.417.929.596.62.893 1.426.893 2.418 0 .545-.081 1.221-.242 2.027a84.05 84.05 0 0 1-.502 2.343l-.334 1.469-.28 1.173c-.285 1.234-.427 1.996-.427 2.285 0 .199.05.391.149.577.099.186.285.279.558.279.421 0 .88-.161 1.376-.484l.446.744zm14.69-7.624c.694-.793 1.041-1.624 1.041-2.492 0-1.016-.446-1.878-1.339-2.584-.892-.707-2.008-1.06-3.347-1.06-1.512 0-2.95.52-4.314 1.562-1.363 1.041-2.46 2.38-3.291 4.016-.831 1.637-1.246 3.285-1.246 4.946 0 1.736.496 3.137 1.488 4.203.991 1.066 2.243 1.599 3.756 1.599 1.14 0 2.287-.322 3.44-.967a14.097 14.097 0 0 0 3.217-2.492l-.818-.595c-2.157 1.364-3.794 2.046-4.909 2.046-.843 0-1.531-.366-2.064-1.097-.533-.732-.8-1.717-.8-2.957 0-.446.012-.781.037-1.004 2.356-.174 4.296-.539 5.82-1.097 1.525-.558 2.635-1.234 3.329-2.027zm-3.719-5.021c-1.636 0-2.988 1.005-4.054 3.013a11.94 11.94 0 0 0-1.227 3.942c2.355-.174 4.178-.688 5.467-1.543 1.289-.856 1.934-1.891 1.934-3.106 0-.644-.18-1.19-.539-1.636-.36-.446-.887-.67-1.581-.67zm18.335-.316c-.471-.533-1.079-.799-1.823-.799-1.091 0-2.07.607-2.938 1.822-.867 1.215-1.673 2.777-2.417 4.686l.335-2.008c.308-1.582.497-2.668.565-3.259l.03-.386c0-.471-.459-.707-1.376-.707-.62 0-1.234.087-1.841.261a18.6 18.6 0 0 0-1.99.706l.186 1.079c.198-.05.397-.074.595-.074.719 0 1.079.396 1.079 1.19 0 .673-.07 1.595-.209 2.768l-.2 1.527c-.117.824-.255 1.744-.413 2.761l-.74 4.584-.068.358-.118.683h2.9l.447-3.57c.297-1.537.75-3.13 1.357-4.779.608-1.649 1.271-3.025 1.99-4.128.719-1.103 1.364-1.655 1.934-1.655.198 0 .359.062.483.186a.609.609 0 0 1 .186.446c0 .124-.074.329-.223.614l-.124.275a1.399 1.399 0 0 0-.099.487c0 .323.111.577.335.763.223.186.533.279.929.279.645 0 1.128-.23 1.451-.688.322-.459.483-.973.483-1.544 0-.719-.235-1.345-.706-1.878z" fill="#CED4DA"/>
</svg>
