<?xml version="1.0" encoding="UTF-8"?>
<svg width="103px" height="18px" viewBox="0 0 103 18" version="1.1" xmlns="http://www.w3.org/2000/svg" xmlns:xlink="http://www.w3.org/1999/xlink">
    <!-- Generator: sketchtool 59.1 (101010) - https://sketch.com -->
    <title>69AE54E8-945B-42B2-828D-FDE0DDBA9094</title>
    <desc>Created with sketchtool.</desc>
    <g id="Page-1" stroke="none" stroke-width="1" fill="none" fill-rule="evenodd">
        <g id="icon" transform="translate(-42.000000, -44.000000)">
            <g id="logo_peachplanner" transform="translate(42.000000, 42.000000)">
                <rect id="Rectangle" x="0" y="0" width="103" height="22"></rect>
                <g id="Group" transform="translate(0.000000, 2.000000)" fill-rule="nonzero">
                    <path d="M1.42108547e-14,15.5290909 L1.42108547e-14,14.742 L0.787090909,14.7845455 C1.02818302,14.7845455 1.14872727,14.628547 1.14872727,14.3165455 L1.14872727,4.04181818 C1.14872727,3.87163551 1.11327308,3.74754584 1.04236364,3.66954545 C0.971454191,3.59154506 0.843819104,3.55963629 0.659454545,3.57381818 L1.42108547e-14,3.61636364 L1.42108547e-14,2.82927273 L5.59472727,2.82927273 C7.19728074,2.82927273 8.38145072,3.12354251 9.14727273,3.71209091 C9.91309474,4.30063931 10.296,5.19763034 10.296,6.40309091 C10.296,7.56600581 9.923731,8.49845104 9.17918182,9.20045455 C8.43463264,9.90245806 7.43127904,10.2534545 6.16909091,10.2534545 L4.08436364,10.2534545 L4.08436364,14.3165455 C4.08436364,14.628547 4.2261804,14.7845455 4.50981818,14.7845455 L5.55218182,14.742 L5.55218182,15.5290909 L1.42108547e-14,15.5290909 Z M5.25436364,9.48763636 C5.8216392,9.48763636 6.29317994,9.196912 6.669,8.61545455 C7.04482006,8.03399709 7.23272727,7.29654992 7.23272727,6.40309091 C7.23272727,5.56635945 7.04482006,4.88563899 6.669,4.36090909 C6.29317994,3.83617919 5.80036669,3.57381818 5.19054545,3.57381818 L4.33963636,3.57381818 C4.28290881,3.57381818 4.2261821,3.59863612 4.16945455,3.64827273 C4.11272699,3.69790934 4.08436364,3.75818146 4.08436364,3.82909091 L4.08436364,9.48763636 L5.25436364,9.48763636 Z M16.0609091,6.27545455 C17.351461,6.27545455 18.383178,6.62645104 19.1560909,7.32845455 C19.9290039,8.03045806 20.3225454,9.02672082 20.3367273,10.3172727 L20.3367273,11.1043636 L14.2101818,11.1043636 C14.2101818,12.3240061 14.4335432,13.2529059 14.8802727,13.8910909 C15.3270022,14.5292759 15.9970864,14.8554545 16.8905455,14.8696364 C17.5570942,14.8696364 18.1314521,14.7030017 18.6136364,14.3697273 C19.0958206,14.0364529 19.4503625,13.6287297 19.6772727,13.1465455 L20.2516364,13.5507273 C19.9254529,14.2456398 19.4042763,14.7845435 18.6880909,15.1674545 C17.9719055,15.5503656 17.1103687,15.7418182 16.1034545,15.7418182 C14.4158097,15.7418182 13.1820039,15.3589129 12.402,14.5930909 C11.6219961,13.8272689 11.232,12.6430989 11.232,11.0405455 C11.232,9.40962821 11.6361778,8.20773114 12.4445455,7.43481818 C13.2529131,6.66190523 14.4583556,6.27545455 16.0609091,6.27545455 Z M15.9970909,6.99872727 C15.3872697,6.99872727 14.9405469,7.31426957 14.6569091,7.94536364 C14.3732713,8.5764577 14.2314545,9.39544951 14.2314545,10.4023636 L17.0607273,10.4023636 C17.2025462,10.4023636 17.3089087,10.3527278 17.3798182,10.2534545 C17.4507276,10.1541813 17.4861818,9.96981953 17.4861818,9.70036364 C17.4861818,8.77854085 17.369183,8.09782038 17.1351818,7.65818182 C16.9011806,7.21854326 16.5218208,6.99872727 15.9970909,6.99872727 Z M30.4625455,14.8058182 L30.4625455,15.5290909 L26.5909091,15.5290909 L26.6547274,15.0770452 C26.6618183,15.0114544 26.6671364,14.9507387 26.6706819,14.8948979 L26.6972727,14.1676364 C26.0732696,15.1461867 25.0947339,15.6354545 23.7616364,15.6354545 C22.8681774,15.6354545 22.1910023,15.4333657 21.7300909,15.0291818 C21.2691795,14.624998 21.0387273,14.0258222 21.0387273,13.2316364 C21.0387273,12.1963585 21.4925409,11.4305479 22.4001818,10.9341818 C23.3078227,10.4378157 24.740172,10.1896364 26.6972727,10.1896364 L26.6972727,8.70054545 C26.6972727,8.16163367 26.6050918,7.74327422 26.4207273,7.44545455 C26.2363627,7.14763487 25.8534575,6.99872727 25.272,6.99872727 C24.7756339,6.99872727 24.4246374,7.08381733 24.219,7.254 C24.0133626,7.42418267 23.9105455,7.62981698 23.9105455,7.87090909 C23.9105455,8.05527365 23.9459996,8.21836293 24.0169091,8.36018182 L24.0807274,8.61545476 C24.0949092,8.68636367 24.102,8.7430907 24.102,8.78563636 C24.102,9.09763792 23.992092,9.33872642 23.7722727,9.50890909 C23.5524534,9.67909176 23.2723653,9.76418182 22.932,9.76418182 C22.5349071,9.76418182 22.212274,9.64718299 21.9640909,9.41318182 C21.7159079,9.17918065 21.5918182,8.88491086 21.5918182,8.53036364 C21.5918182,7.84963296 21.9463601,7.30363842 22.6554545,6.89236364 C23.364549,6.48108885 24.3218122,6.27545455 25.5272727,6.27545455 C28.1651041,6.27545455 29.484,7.21853602 29.484,9.10472727 L29.484,14.4441818 C29.484,14.7136377 29.5761809,14.8483636 29.7605455,14.8483636 L30.4625455,14.8058182 Z M24.9741818,14.3803636 C25.4138204,14.3803636 25.7931802,14.1924564 26.1122727,13.8166364 C26.4313652,13.4408163 26.6263633,12.948003 26.6972727,12.3381818 L26.6972727,10.9341818 C25.7329043,10.9341818 25.0309113,11.1043619 24.5912727,11.4447273 C24.1516342,11.7850926 23.9318182,12.295633 23.9318182,12.9763636 C23.9318182,13.9123683 24.2792693,14.3803636 24.9741818,14.3803636 Z M35.8870909,6.27545455 C36.5961854,6.27545455 37.2343608,6.37472628 37.8016364,6.57327273 C38.3689119,6.77181917 38.8120893,7.04127103 39.1311818,7.38163636 C39.4502743,7.7220017 39.6098182,8.09781613 39.6098182,8.50909091 C39.6098182,8.87782003 39.4928194,9.18981691 39.2588182,9.44509091 C39.024817,9.70036491 38.695093,9.828 38.2696364,9.828 C37.929271,9.828 37.6491829,9.74645536 37.4293636,9.58336364 C37.2095444,9.42027191 37.0996364,9.18272883 37.0996364,8.87072727 C37.0996364,8.74309027 37.1279997,8.59418267 37.1847273,8.424 C37.2556367,8.28218111 37.2910909,8.12618267 37.2910909,7.956 C37.2910909,7.64399844 37.1670012,7.40645536 36.9188182,7.24336364 C36.6706351,7.08027191 36.3621837,6.99872727 35.9934545,6.99872727 C35.3836333,6.99872727 34.9085472,7.28590622 34.5681818,7.86027273 C34.2278165,8.43463924 34.0576364,9.40962949 34.0576364,10.7852727 C34.0576364,12.3169167 34.2668161,13.3947242 34.6851818,14.0187273 C35.1035475,14.6427304 35.6814509,14.9547273 36.4189091,14.9547273 C37.0003665,14.9547273 37.528634,14.7951834 38.0037273,14.4760909 C38.4788206,14.1569984 38.8439987,13.6358218 39.0992727,12.9125455 L39.7587273,13.2316364 C39.148906,14.9050993 37.8654643,15.7418182 35.9083636,15.7418182 C34.5185385,15.7418182 33.3733681,15.3589129 32.4728182,14.5930909 C31.5722682,13.8272689 31.122,12.6572806 31.122,11.0830909 C31.122,9.50890122 31.561632,8.31409499 32.4409091,7.49863636 C33.3201862,6.68317774 34.468902,6.27545455 35.8870909,6.27545455 Z M51.2672727,14.8058182 L51.2672727,15.5290909 L46.4170909,15.5290909 L46.4170909,14.8058182 L47.2254545,14.8483636 C47.4098191,14.805818 47.502,14.671092 47.502,14.4441818 L47.502,9.29618182 C47.502,8.5445417 47.4417279,8.01981967 47.3211818,7.722 C47.2006358,7.42418033 46.9276385,7.27527273 46.5021818,7.27527273 C46.1334527,7.27527273 45.7753654,7.43127117 45.4279091,7.74327273 C45.0804528,8.05527429 44.7932739,8.51617877 44.5663636,9.126 C44.3394534,9.73582123 44.226,10.4661776 44.226,11.3170909 L44.226,14.4441818 C44.226,14.7136377 44.3181809,14.8483636 44.5025455,14.8483636 L45.3321818,14.8058182 L45.3321818,15.5290909 L40.4607273,15.5290909 L40.4607273,14.8058182 L41.1627273,14.8483636 C41.3470918,14.805818 41.4392727,14.671092 41.4392727,14.4441818 L41.4392727,1.08490909 C41.4392727,0.843816976 41.3470918,0.702000213 41.1627273,0.659454545 L40.4607273,0.702 L40.4607273,-5.04485342e-13 L44.226,-5.04485342e-13 L44.226,8.424 C44.5380016,7.74326932 44.9740881,7.21500188 45.5342727,6.83918182 C46.0944573,6.46336176 46.7574507,6.27545455 47.5232727,6.27545455 C48.4876412,6.27545455 49.1896342,6.52008846 49.6292727,7.00936364 C50.0689113,7.49863881 50.2887273,8.26799475 50.2887273,9.31745455 L50.2887273,14.4441818 C50.2887273,14.7136377 50.3809082,14.8483636 50.5652727,14.8483636 L51.2672727,14.8058182 Z" id="Peach" fill="#212529"></path>
                    <path d="M60.084,6.85636364 C60.5967298,6.85636364 61.0030894,7.04999806 61.3030909,7.43727273 C61.6030924,7.82454739 61.7530909,8.33999678 61.7530909,8.98363636 C61.7530909,9.74727655 61.5840017,10.5245415 61.2458182,11.3154545 C60.9076347,12.1063676 60.4467302,12.7609065 59.8630909,13.2790909 C59.2794516,13.7972753 58.6440034,14.0563636 57.9567273,14.0563636 C57.6294529,14.0563636 57.3349104,13.9963642 57.0730909,13.8763636 C56.8112714,13.756363 56.6040008,13.5981828 56.4512727,13.4018182 L56.2039994,15.1854585 C56.070666,16.2036398 56.0003637,16.8799983 55.9930909,17.2145455 C55.9930909,17.3454552 56.0421813,17.4109091 56.1403636,17.4109091 L57.1712727,17.3781818 L57.1058182,17.8036364 L53.9312727,17.8036364 L53.9967273,17.3781818 L54.504,17.4109091 C54.6240006,17.3999999 54.7003635,17.2909101 54.7330909,17.0836364 L55.0231734,15.2268384 C55.1540822,14.3542937 55.3028421,13.3259563 55.4694545,12.1418182 L55.8130915,9.55636028 C55.8894549,8.91818006 55.9276364,8.50363732 55.9276364,8.31272727 C55.9276364,7.96363462 55.7694561,7.78909091 55.4530909,7.78909091 C55.3658177,7.78909091 55.2785459,7.79999989 55.1912727,7.82181818 L55.1094545,7.34727273 C55.4258198,7.21636298 55.717635,7.11272765 55.9849091,7.03636364 C56.2521832,6.95999962 56.5221805,6.92181818 56.7949091,6.92181818 C57.1985475,6.92181818 57.4003636,7.02545351 57.4003636,7.23272727 L57.3799092,7.4311358 C57.3390004,7.72977085 57.2367281,8.32908641 57.0730909,9.22909091 L57.0240001,9.576818 C57.002182,9.7049995 56.9749093,9.84545378 56.9421818,9.99818182 C57.4221842,8.91817642 57.9349064,8.12454799 58.4803636,7.61727273 C59.0258209,7.10999746 59.560361,6.85636364 60.084,6.85636364 Z M60.1003636,10.9145455 C60.2312734,10.4018156 60.2967273,9.88909347 60.2967273,9.37636364 C60.2967273,8.87454295 60.2203644,8.47909235 60.0676364,8.19 C59.9149083,7.90090765 59.7240011,7.75636364 59.4949091,7.75636364 C59.189453,7.75636364 58.8076387,8.02908818 58.3494545,8.57454545 C57.8912704,9.12000273 57.4903654,9.75817816 57.1467273,10.4890909 C56.8030892,11.2200037 56.6312727,11.8418156 56.6312727,12.3545455 C56.6312727,12.8127296 56.7649078,13.12909 57.0321818,13.3036364 C57.2994559,13.4781827 57.5858167,13.5654545 57.8912727,13.5654545 C58.4694574,13.5654545 58.9385437,13.3118207 59.2985455,12.8045455 C59.6585473,12.2972702 59.9258173,11.6672765 60.1003636,10.9145455 Z M64.1258182,3.24 C64.1258182,3.10909025 64.0767278,3.01090942 63.9785455,2.94545455 C63.8803631,2.87999967 63.7494554,2.84727273 63.5858182,2.84727273 C63.422181,2.84727273 63.2912732,2.85818171 63.1930909,2.88 L63.0949091,2.47090909 C63.8258218,2.12181644 64.4967242,1.94727273 65.1076364,1.94727273 C65.2821827,1.94727273 65.4158177,1.97181794 65.5085455,2.02090909 C65.6012732,2.07000025 65.6476364,2.16545384 65.6476364,2.30727273 L65.634341,2.48829525 C65.6254774,2.56806771 65.612182,2.66727186 65.5944548,2.78590792 L65.2058182,5.07272727 C65.0258173,6.18546011 64.8596251,7.27056707 64.7072389,8.3280663 L64.4447067,10.2418206 C64.3254473,11.1836395 64.2573334,11.8878765 64.2403636,12.3545455 C64.2403636,12.4854552 64.2594544,12.5918178 64.2976364,12.6736364 C64.3358184,12.755455 64.420363,12.7963636 64.5512727,12.7963636 C64.6276367,12.7963636 64.7285448,12.7800002 64.854,12.7472727 C64.9794552,12.7145453 65.1021812,12.6600004 65.2221818,12.5836364 L65.4185455,12.9109091 C65.0803619,13.2709109 64.7340018,13.5518172 64.3794545,13.7536364 C64.0249073,13.9554556 63.7167286,14.0563636 63.4549091,14.0563636 C63.2585445,14.0563636 63.1030915,13.993637 62.9885455,13.8681818 C62.8739994,13.7427266 62.8167273,13.5545467 62.8167273,13.3036364 L62.8242013,13.1568733 C62.8615712,12.6829519 63.0390786,11.4064275 63.3567273,9.32727273 L63.8628503,5.77897941 C64.0381628,4.47632344 64.1258182,3.63000195 64.1258182,3.24 Z M72.3567273,12.7963636 C72.5530919,12.7963636 72.7603625,12.7254553 72.9785455,12.5836364 L73.1749091,12.9109091 C72.8476347,13.3036383 72.5012746,13.5927263 72.1358182,13.7781818 C71.7703618,13.9636373 71.4512741,14.0563636 71.1785455,14.0563636 C71.0258174,14.0563636 70.9221821,13.9963642 70.8676364,13.8763636 C70.8130906,13.756363 70.7858182,13.5654559 70.7858182,13.3036364 C70.7858182,12.9872711 70.9003625,12.163643 71.1294545,10.8327273 C70.5076333,12.010915 69.9512752,12.8427248 69.4603636,13.3281818 C68.9694521,13.8136388 68.4621844,14.0563636 67.9385455,14.0563636 C67.4585431,14.0563636 67.0876377,13.8790927 66.8258182,13.5245455 C66.5639987,13.1699982 66.4330909,12.6818213 66.4330909,12.06 C66.4330909,11.2963598 66.6212708,10.5081859 66.9976364,9.69545455 C67.3740019,8.88272321 67.875815,8.20636634 68.5030909,7.66636364 C69.1303668,7.12636094 69.7876329,6.85636364 70.4749091,6.85636364 C70.7367286,6.85636364 70.9794534,6.91090855 71.2030909,7.02 C71.4267284,7.12909145 71.6094538,7.27636271 71.7512727,7.46181818 L71.8494545,7.10181818 L73.224,6.87272727 L72.8312727,8.49272727 C72.6839993,9.147276 72.5551364,9.77113585 72.444682,10.3643172 L72.3403636,10.9472727 C72.2094539,11.7109129 72.144,12.234544 72.144,12.5181818 C72.144,12.7036373 72.2149084,12.7963636 72.3567273,12.7963636 Z M68.5276364,13.1563636 C68.8440016,13.1563636 69.2449067,12.8618211 69.7303636,12.2727273 C70.2158206,11.6836334 70.6385437,10.9963676 70.9985455,10.2109091 C71.3585473,9.42545062 71.5385455,8.76545722 71.5385455,8.23090909 C71.5385455,7.97999875 71.4403646,7.77000085 71.244,7.60090909 C71.0476354,7.43181734 70.8021833,7.34727273 70.5076364,7.34727273 C69.9185425,7.34727273 69.4194566,7.60636105 69.0103636,8.12454545 C68.6012707,8.64272986 68.3040009,9.29999602 68.1185455,10.0963636 C67.9658174,10.6636392 67.8894545,11.2581787 67.8894545,11.88 C67.8894545,12.2945475 67.9494539,12.610908 68.0694545,12.8290909 C68.1894551,13.0472738 68.3421809,13.1563636 68.5276364,13.1563636 Z M81.3076364,12.9109091 C80.9694529,13.2600017 80.6230927,13.5381808 80.2685455,13.7454545 C79.9139982,13.9527283 79.6167285,14.0563636 79.3767273,14.0563636 C79.2239992,14.0563636 79.0985459,13.9909097 79.0003636,13.86 C78.9021813,13.7290903 78.8530909,13.5490921 78.8530909,13.32 C78.8530909,13.1716356 78.877527,12.9534555 78.9263999,12.6654552 L78.9676364,12.4363636 C79.0440004,12.0327253 79.1258177,11.6127295 79.2130909,11.1763636 L79.3662551,10.4550523 C79.5477827,9.5613784 79.6385455,8.94000175 79.6385455,8.59090909 C79.6385455,8.33999875 79.5758188,8.13818258 79.4503636,7.98545455 C79.3249085,7.83272651 79.153092,7.75636364 78.9349091,7.75636364 C78.6076347,7.75636364 78.2421838,7.97727052 77.8385455,8.41909091 C77.4349071,8.8609113 77.0585472,9.41454213 76.7094545,10.08 C76.3603619,10.7454579 76.1040008,11.3945423 75.9403636,12.0272727 L75.7112727,13.8927273 L74.4349091,13.8927273 L74.4870681,13.5920459 C74.4959317,13.5443186 74.5058181,13.4918185 74.5167273,13.4345455 L74.8426643,11.4174765 C74.9121261,10.9699823 74.9725712,10.5650667 75.024,10.2027273 L75.1121635,9.53081484 C75.1733881,9.01485954 75.204,8.60883265 75.204,8.31272727 C75.204,7.96363462 75.0458198,7.78909091 74.7294545,7.78909091 C74.6421814,7.78909091 74.5549095,7.79999989 74.4676364,7.82181818 L74.3858182,7.34727273 C74.7021834,7.21636298 74.9939987,7.11272765 75.2612727,7.03636364 C75.5285468,6.95999962 75.7985441,6.92181818 76.0712727,6.92181818 C76.4749111,6.92181818 76.6767273,7.02545351 76.6767273,7.23272727 L76.6669092,7.35970889 C76.6538184,7.4766539 76.6276367,7.65818029 76.588364,7.90428907 L76.1858182,10.26 C76.5785474,9.31090909 77.0585426,8.50636694 77.6258182,7.84636364 C78.1930937,7.18636034 78.8258147,6.85636364 79.524,6.85636364 C79.971275,6.85636364 80.3258169,6.99272591 80.5876364,7.26545455 C80.8494559,7.53818318 80.9803636,7.89272509 80.9803636,8.32909091 C80.9803636,8.56909211 80.9449094,8.86636186 80.874,9.22090909 C80.8030906,9.57545632 80.7294549,9.91908925 80.6530909,10.2518182 L80.5058182,10.8981818 L80.5058182,10.8981818 L80.3829895,11.4145471 C80.2576021,11.957578 80.1949091,12.2927266 80.1949091,12.42 C80.1949091,12.5072732 80.2167271,12.5918178 80.2603636,12.6736364 C80.3040002,12.755455 80.3858182,12.7963636 80.5058182,12.7963636 C80.6912737,12.7963636 80.8930898,12.7254553 81.1112727,12.5836364 L81.3076364,12.9109091 Z M89.5549091,12.9109091 C89.2167256,13.2600017 88.8703654,13.5381808 88.5158182,13.7454545 C88.161271,13.9527283 87.8640012,14.0563636 87.624,14.0563636 C87.471272,14.0563636 87.3458187,13.9909097 87.2476364,13.86 C87.1494541,13.7290903 87.1003636,13.5490921 87.1003636,13.32 C87.1003636,13.1716356 87.1247998,12.9534555 87.1736726,12.6654552 L87.2149091,12.4363636 C87.2912731,12.0327253 87.3730905,11.6127295 87.4603636,11.1763636 L87.6135278,10.4550523 C87.7950555,9.5613784 87.8858182,8.94000175 87.8858182,8.59090909 C87.8858182,8.33999875 87.8230915,8.13818258 87.6976364,7.98545455 C87.5721812,7.83272651 87.4003647,7.75636364 87.1821818,7.75636364 C86.8549075,7.75636364 86.4894566,7.97727052 86.0858182,8.41909091 C85.6821798,8.8609113 85.3058199,9.41454213 84.9567273,10.08 C84.6076346,10.7454579 84.3512735,11.3945423 84.1876364,12.0272727 L83.9585455,13.8927273 L82.6821818,13.8927273 L82.7343408,13.5920459 C82.7432045,13.5443186 82.7530909,13.4918185 82.764,13.4345455 L83.089937,11.4174765 C83.1593988,10.9699823 83.2198439,10.5650667 83.2712727,10.2027273 L83.3594363,9.53081484 C83.4206608,9.01485954 83.4512727,8.60883265 83.4512727,8.31272727 C83.4512727,7.96363462 83.2930925,7.78909091 82.9767273,7.78909091 C82.8894541,7.78909091 82.8021823,7.79999989 82.7149091,7.82181818 L82.6330909,7.34727273 C82.9494561,7.21636298 83.2412714,7.11272765 83.5085455,7.03636364 C83.7758195,6.95999962 84.0458168,6.92181818 84.3185455,6.92181818 C84.7221838,6.92181818 84.924,7.02545351 84.924,7.23272727 L84.9141819,7.35970889 C84.9010911,7.4766539 84.8749094,7.65818029 84.8356367,7.90428907 L84.4330909,10.26 C84.8258201,9.31090909 85.3058153,8.50636694 85.8730909,7.84636364 C86.4403665,7.18636034 87.0730874,6.85636364 87.7712727,6.85636364 C88.2185477,6.85636364 88.5730896,6.99272591 88.8349091,7.26545455 C89.0967286,7.53818318 89.2276364,7.89272509 89.2276364,8.32909091 C89.2276364,8.56909211 89.1921822,8.86636186 89.1212727,9.22090909 C89.0503633,9.57545632 88.9767277,9.91908925 88.9003636,10.2518182 L88.7530909,10.8981818 L88.7530909,10.8981818 L88.6302622,11.4145471 C88.5048748,11.957578 88.4421818,12.2927266 88.4421818,12.42 C88.4421818,12.5072732 88.4639998,12.5918178 88.5076364,12.6736364 C88.5512729,12.755455 88.6330909,12.7963636 88.7530909,12.7963636 C88.9385464,12.7963636 89.1403625,12.7254553 89.3585455,12.5836364 L89.5549091,12.9109091 Z M96.4767273,8.46 C96.4767273,8.84182009 96.3240015,9.20727098 96.0185455,9.55636364 C95.7130894,9.90545629 95.2249124,10.202726 94.554,10.4481818 C93.8830876,10.6936376 93.0294597,10.8545451 91.9930909,10.9309091 C91.9821818,11.0290914 91.9767273,11.1763627 91.9767273,11.3727273 C91.9767273,11.9181845 92.0939988,12.3518166 92.3285455,12.6736364 C92.5630921,12.9954562 92.8658163,13.1563636 93.2367273,13.1563636 C93.7276388,13.1563636 94.4476316,12.8563636 95.3967273,12.2563636 L95.7567273,12.5181818 C95.3203615,12.9654568 94.848548,13.3309077 94.3412727,13.6145455 C93.8339975,13.8981832 93.3294571,14.04 92.8276364,14.04 C92.1621785,14.04 91.6112749,13.8054569 91.1749091,13.3363636 C90.7385433,12.8672704 90.5203636,12.2509129 90.5203636,11.4872727 C90.5203636,10.75636 90.7030891,10.0309127 91.0685455,9.31090909 C91.4340018,8.59090549 91.9167243,8.00182047 92.5167273,7.54363636 C93.1167303,7.08545225 93.7494512,6.85636364 94.4149091,6.85636364 C95.0040029,6.85636364 95.4949071,7.01181663 95.8876364,7.32272727 C96.2803656,7.63363792 96.4767273,8.01272504 96.4767273,8.46 Z M94.3821818,7.34727273 C93.6621782,7.34727273 93.0676387,7.78908649 92.5985455,8.67272727 C92.3149077,9.22909369 92.1349095,9.80726973 92.0585455,10.4072727 C93.0949143,10.3309087 93.8967244,10.1045473 94.464,9.72818182 C95.0312756,9.3518163 95.3149091,8.89636631 95.3149091,8.36181818 C95.3149091,8.0781804 95.235819,7.8381828 95.0776364,7.64181818 C94.9194538,7.44545356 94.6876379,7.34727273 94.3821818,7.34727273 Z M101.647636,6.85636364 C101.974911,6.85636364 102.242181,6.97363519 102.449455,7.20818182 C102.656728,7.44272845 102.760364,7.71818024 102.760364,8.03454545 C102.760364,8.2854558 102.689455,8.51181717 102.547636,8.71363636 C102.405817,8.91545555 102.193092,9.01636364 101.909455,9.01636364 C101.734908,9.01636364 101.598546,8.97545495 101.500364,8.89363636 C101.402181,8.81181777 101.353091,8.70000071 101.353091,8.55818182 C101.353091,8.49272695 101.367636,8.42121218 101.396727,8.34363653 L101.451273,8.22272727 C101.516728,8.0972721 101.549455,8.007273 101.549455,7.95272727 C101.549455,7.87636325 101.522182,7.81090936 101.467636,7.75636364 C101.413091,7.70181791 101.342182,7.67454545 101.254909,7.67454545 C101.003999,7.67454545 100.720365,7.9172703 100.404,8.40272727 C100.087635,8.88818425 99.7958195,9.49363274 99.5285455,10.2190909 C99.2612714,10.9445491 99.0621825,11.6454512 98.9312727,12.3218182 L98.7349091,13.8927273 L97.4585455,13.8927273 L97.5107045,13.5920459 C97.5195681,13.5443186 97.5294545,13.4918185 97.5403636,13.4345455 L97.8663006,11.4174765 C97.9357624,10.9699823 97.9962075,10.5650667 98.0476364,10.2027273 L98.1357999,9.53081484 C98.1970244,9.01485954 98.2276364,8.60883265 98.2276364,8.31272727 C98.2276364,7.96363462 98.0694561,7.78909091 97.7530909,7.78909091 C97.6658177,7.78909091 97.5785459,7.79999989 97.4912727,7.82181818 L97.4094545,7.34727273 C97.7258198,7.21636298 98.017635,7.11272765 98.2849091,7.03636364 C98.5521832,6.95999962 98.8221805,6.92181818 99.0949091,6.92181818 C99.4985475,6.92181818 99.7003636,7.02545351 99.7003636,7.23272727 L99.6874344,7.40242408 C99.6572663,7.66262524 99.5743037,8.14060258 99.4385455,8.83636364 L99.2912727,9.72 C99.6185471,8.8799958 99.973089,8.19272995 100.354909,7.65818182 C100.736729,7.12363369 101.167634,6.85636364 101.647636,6.85636364 Z" id="planner" fill="#868E96"></path>
                </g>
            </g>
        </g>
    </g>
</svg>